PathFileType	4	(X/Y/Z)	C:/Users/beibeiliu/ov580/test_trc/User1\sequence.6_training_dense_right.trc
DataRate	CameraRate	NumFrames	NumMarkers	Units	OrigDataRate	OrigDataStartFrame	OrigNumFrames
120	120	25	19	mm	120	70	277
Frame#	Time	ThumbCMC			ThumbMCP			ThumbIP			ThumbTip			IndexMCP			IndexPIP			IndexTip			MiddleMCP			MiddlePIP			MiddleTip			RingMCP			RingPIP			RingTip			PinkyMCP			PinkyPIP			PinkyTip			BackHand1			BackHand2			BackHand3	
		X0	Y0	Z0	X1	Y1	Z1	X2	Y2	Z2	X3	Y3	Z3	X4	Y4	Z4	X5	Y5	Z5	X6	Y6	Z6	X7	Y7	Z7	X8	Y8	Z8	X9	Y9	Z9	X10	Y10	Z10	X11	Y11	Z11	X12	Y12	Z12	X13	Y13	Z13	X14	Y14	Z14	X15	Y15	Z15	X16	Y16	Z16	X17	Y17	Z17	X18	Y18	Z18	
69	0.575	168.786	110.007	17.2091	139.073	109.799	-3.65073	122.955	104.508	-31.7738	107.889	94.2526	-45.374	190.756	92.1286	-59.2036	192.257	87.9785	-80.9663	196.008	82.0282	-104.356	161.163	67.0358	-60.0371	126.948	72.3296	-59.3936	117.341	75.5615	-20.2421	148.876	46.2124	-40.8581	118.422	59.2831	-34.6656	110.658	68.7851	-1.6374	143.737	34.0174	-24.3769	121.165	45.8846	-15.7641	127.027	69.5279	5.75211	194.149	46.5165	1.53497	200.442	56.9402	39.5418	200.908	86.9637	15.5042	
70	0.583333	171.022	110.005	20.1206	140.708	109.341	-5.24593	123.688	107.996	-30.369	108.842	95.4442	-47.4323	191.29	86.926	-60.3566	192.47	86.6645	-82.2443	195.757	81.5867	-109.624	161.788	62.9959	-58.82	128.993	73.6506	-60.4618	117.441	77.1458	-22.3175	148.866	48.9301	-40.6672	117.718	60.4026	-34.9678	111.079	74.6127	-4.69524	142.828	33.8824	-24.5714	121.316	51.1363	-14.202	127.797	72.8558	2.75317	192.398	44.9779	1.00577	199.699	52.5568	35.5039	204.82	82.4141	12.7641	
71	0.591667	172.678	109.698	18.7469	141.406	113.485	-3.33709	126.26	104.125	-29.1688	108.322	94.8217	-48.3209	190.508	88.3605	-58.6562	188.078	82.7579	-84.7516	187.429	81.3383	-107.208	159.658	67.7245	-60.2775	127.989	74.0935	-59.4108	119.176	83.231	-18.6046	146.504	48.8714	-40.7394	116.975	57.4187	-31.8871	111.14	75.213	-0.907322	144.2	32.0349	-21.2017	122.921	50.4558	-17.5	126.429	71.4505	3.28986	194.925	43.8109	3.78974	200.896	52.6239	40.571	203.184	82.5661	16.3334	
72	0.6	174.477	109.951	22.3321	142.687	111.474	-5.17536	127.257	105.26	-28.6312	110.031	95.3138	-45.6273	186.405	87.0153	-57.4255	179.419	84.4464	-87.1752	171.593	79.5201	-110.913	159.192	66.9151	-58.7384	124.853	72.331	-55.6418	117.773	82.458	-20.2674	148.168	49.1593	-40.5441	116.323	63.5298	-31.7076	110.527	72.4825	-0.269618	145.604	33.5676	-22.0911	122.238	53.2828	-14.3609	124.862	73.9079	9.03368	194.94	44.4591	2.67333	201.742	48.8679	34.6073	204.745	83.474	10.2754	
73	0.608333	175.255	109.608	18.2075	142.408	115.659	-3.07321	127.379	106.304	-26.2154	111.368	98.2092	-43.9724	179.613	89.8924	-60.9939	166.958	91.4477	-84.858	153.434	85.1604	-105.4	158.177	68.5778	-58.5456	125.876	73.3731	-56.0874	116.371	82.2215	-18.7242	147.808	50.3946	-40.298	113.49	60.0397	-29.7328	110.31	72.9134	0.337389	143.667	32.793	-20.927	119.187	49.4737	-12.4963	124.103	74.6381	10.195	193.215	47.1663	-0.566975	202.575	51.6057	36.2378	204.816	83.8121	12.5956	
74	0.616667	174.142	110.178	19.8298	143.402	111.804	-4.78316	128.093	106.863	-25.6912	112.245	97.1017	-44.1874	171.974	91.7806	-60.5381	153.513	91.454	-82.8081	134.172	83.6991	-97.6691	156.163	69.1212	-58.0751	122.029	72.4747	-53.3469	112.968	79.3803	-18.3871	147.241	49.3037	-40.0015	112.667	61.3736	-26.2482	109.963	72.0362	-0.651746	143.768	33.0049	-21.1756	119.275	51.7154	-11.5309	126.862	74.4251	9.15455	193.303	45.0305	-1.54559	203.519	52.666	36.2409	205.253	83.6294	7.88573	
75	0.625	174.267	111.07	19.3045	143.402	114.141	-1.82774	127.809	109.198	-24.6923	110.927	101.209	-47.4597	166.317	91.8075	-60.6171	146.079	90.7937	-77.5309	124.152	88.0865	-91.7451	159.165	69.9424	-56.5166	121.306	75.2201	-54.7707	110.288	82.055	-16.3137	142.109	49.4278	-39.6245	115.813	61.1435	-30.0462	112.996	72.773	1.9323	145.089	32.2321	-20.5655	120.298	47.4534	-13.4476	125.736	72.6702	10.6959	194.129	45.0755	-0.729834	203.289	52.6937	35.7515	206.986	85.5438	7.99546	
76	0.633333	174.661	111.495	21.1353	143.729	112.754	-6.5484	128.754	107.01	-26.8255	111.039	104.179	-46.0378	168.522	88.7717	-57.5865	146.222	92.5387	-75.4886	118.68	84.0112	-89.9913	157.434	69.116	-57.1046	121.213	72.6515	-55.424	106.635	82.7334	-22.9251	146.346	50.708	-38.6667	113.76	62.5469	-25.8268	114.766	74.3755	2.76443	145.281	34.2481	-20.6736	121.279	49.3264	-13.7333	128.808	75.295	8.93001	194.524	48.6143	4.02944	205.053	50.0524	33.8534	206.559	84.3117	13.9652	
77	0.641667	174.541	113.117	19.5525	144.217	111.264	-2.84926	129.505	107.94	-27.0232	112.069	103.749	-46.176	166.722	92.8179	-62.1006	145.98	90.1985	-76.7818	122.627	82.2174	-90.6596	155.998	67.8076	-56.7853	123.497	75.5629	-57.198	103.943	80.2797	-23.3279	140.449	48.1669	-38.6786	116.314	64.1691	-28.4201	114.808	77.4406	0.605599	142.413	31.402	-18.488	119.506	50.2319	-10.1648	129.587	73.2009	12.9904	192.814	47.8955	1.30926	201.861	50.4578	34.3093	204.452	81.7513	11.7223	
78	0.65	174.501	114.846	20.616	143.361	115.609	-2.33166	127.68	109.056	-32.4868	113.83	99.7757	-48.2977	170.684	90.0561	-58.3255	151.781	91.5408	-79.7545	129.941	82.487	-95.9567	159.744	68.3742	-55.486	122.941	71.3857	-57.2765	104.154	81.0684	-25.5607	142.246	48.9107	-37.6888	112.957	61.9561	-25.3253	115.399	76.4137	3.25818	139.506	34.1119	-19.8615	118.665	49.2589	-11.6621	126.933	74.8344	8.98427	194.773	48.7731	2.15859	204.687	55.7918	36.8477	204.314	83.3945	10.6794	
79	0.658333	173.137	115.122	18.1141	142.972	116.936	-5.26668	128.346	109.24	-25.378	113.763	100.528	-46.3032	173.281	93.4427	-63.6051	158.123	87.6555	-85.1016	141.559	86.6836	-103.793	159.36	71.0102	-56.8584	124.135	74.6562	-58.484	105.794	84.8674	-21.2919	146.171	51.99	-38.2027	113.4	65.3117	-27.4956	114.441	77.5247	4.41648	139.521	33.7271	-20.6458	121.244	54.0683	-14.6608	125.175	75.5433	11.802	194.283	50.0282	3.51906	203.286	56.9313	34.4678	203.368	86.5541	12.4834	
80	0.666667	173.066	116.297	18.8557	141.201	116.748	-7.57615	125.98	110.88	-28.712	108.07	104.866	-47.4491	178.455	89.8985	-63.5949	168.082	89.8998	-86.7616	155.847	84.4261	-109.26	157.108	69.423	-57.583	122.206	73.6384	-57.4741	108.712	86.033	-23.129	145.108	52.0272	-39.2729	114.748	65.2278	-29.8447	111.066	78.8671	1.2862	141.393	37.1108	-22.1109	118.085	54.5886	-12.1554	126.573	75.954	12.2293	193.377	52.0519	2.99925	200.607	56.9423	35.6512	202.298	87.3742	12.5837	
81	0.675	171.627	116.608	18.0237	140.294	116.714	-5.6489	125.015	112.956	-28.6869	110.727	100.827	-45.4954	182.927	93.8333	-62.9481	176.118	90.7886	-87.0829	170.29	84.5492	-112.716	155.447	68.4033	-59.9528	120.988	76.0518	-54.5484	112.909	87.92	-20.5846	142.387	52.1197	-40.2723	112.586	68.0907	-30.5251	108.257	76.5463	1.46021	138.948	37.7451	-22.062	116.936	54.3921	-13.0637	122.976	78.1042	8.0935	191.825	51.7349	5.19802	199.851	54.0697	38.195	201.871	83.6833	12.3683	
82	0.683333	171.148	118.989	16.1617	140.577	116.994	-6.43242	126.018	110.386	-30.4425	109.561	100.914	-47.6875	184.899	89.3756	-62.5353	182.764	87.8866	-84.3326	179.456	80.3106	-107.034	158.278	70.8404	-58.4441	125.852	79.6756	-59.9416	115.7	88.4026	-17.8342	141.952	53.8583	-41.324	113.054	69.1625	-31.2275	108.091	78.5067	-4.04021	141.702	37.2957	-22.0625	116.741	54.7051	-14.4699	122.134	78.8302	4.62528	190.692	49.2896	0.891869	200.27	55.8957	34.6031	201.184	85.413	9.70813	
83	0.691667	172.116	116.398	18.3789	139.701	118.795	-7.88951	125.513	113.422	-29.202	108.769	102.664	-48.4153	187.981	89.3169	-58.8011	187.664	88.6531	-85.9077	187.758	82.4753	-109.909	159.537	68.9018	-58.5678	125.569	78.1464	-59.1275	116.536	88.9036	-22.0057	146.196	55.0446	-40.912	114.875	65.4441	-34.5424	108.538	83.4794	-4.73548	137.795	39.8313	-22.8534	118.278	59.3916	-15.2181	123.096	80.8239	3.34597	190.882	48.2313	3.19764	197.703	54.2943	40.0292	203.236	85.0164	11.1479	
84	0.7	171.855	117.409	18.1955	141.713	116.811	-7.06004	124.407	113.904	-31.7768	109.541	102.65	-46.0191	190.241	93.9933	-60.4894	188.246	85.9432	-84.3475	190.248	79.152	-108.123	160.435	72.0235	-57.3546	123.255	80.6391	-58.0135	116.864	88.1774	-19.5857	143.123	57.0014	-43.1046	112.169	64.7579	-33.1426	109.609	84.4214	-6.89476	141.696	37.4888	-20.963	115.767	55.7665	-15.7968	124.334	81.2308	1.75955	191.004	53.6799	0.425928	197.735	55.9171	36.6768	201.133	84.522	10.7138	
85	0.708333	171.015	117.352	16.7562	139.797	119.326	-6.08876	124.859	111.703	-29.7876	106.35	105.004	-46.7913	188.361	92.6331	-57.1979	189.19	87.0771	-82.3902	191.521	78.355	-107.441	157.26	73.8464	-60.5859	124.919	77.8666	-59.8139	116.947	90.685	-19.3668	140.556	53.2126	-40.6042	113.807	68.3099	-34.8758	108.033	81.3437	-2.93471	137.303	40.2922	-21.8393	116.153	57.1082	-15.9987	126.6	82.6546	4.41435	189.966	54.1004	4.24593	195.353	57.5601	40.6423	200.892	85.4543	15.6095	
86	0.716667	170.069	119.708	16.7473	137.942	122.76	-4.19984	122.293	116.346	-31.4343	104.606	106.983	-45.7881	188.244	92.7571	-59.7858	186.465	87.8462	-80.2796	189.411	76.3239	-108.85	157.955	71.401	-58.9903	122.214	79.3383	-58.3023	116.992	91.9713	-19.7846	138.426	54.7295	-40.8923	111.571	71.62	-32.1157	109.619	87.0417	-2.66687	137.933	41.1619	-21.1234	116.737	60.7801	-16.1076	122.482	83.4603	3.26748	187.698	53.3062	2.62647	197.315	56.4676	39.0243	201.273	86.6322	11.7391	
87	0.725	169.081	119.457	20.4781	137.979	120.433	-7.02454	120.53	116.703	-30.7395	104.095	104.166	-48.118	185.579	91.4893	-58.9336	183.358	88.294	-80.6511	184.633	83.234	-106.025	154.659	73.5132	-59.6663	122.538	82.6031	-58.2217	112.849	89.1655	-21.0552	138.853	56.5215	-40.5872	109.452	68.9794	-29.7816	106.613	84.6015	-2.65271	135.293	39.5218	-19.4124	115.882	59.565	-14.0254	121.285	82.5947	8.9594	188.469	51.6358	5.11308	193.901	57.7951	37.5334	198.688	87.4141	15.5388	
88	0.733333	167.56	120.445	22.5356	135.16	123.623	-4.00485	121.121	115.509	-26.5676	105.325	102.643	-44.5554	181.544	92.1734	-57.5866	178.228	86.801	-84.4584	174.979	82.7522	-110.037	152.693	70.8698	-57.9545	120.492	79.3931	-57.1233	110.328	91.3743	-19.0971	137.683	60.0678	-39.9434	108.228	71.9068	-28.7718	104.091	83.2959	2.85307	136.97	41.6518	-20.1421	113.042	60.063	-11.5098	121.13	84.8014	10.3384	185.98	55.6703	1.509	194.569	60.5219	35.9899	198.763	89.7535	13.683	
89	0.741667	166.822	119.511	18.4429	134.9	121.668	-2.06168	118.997	116.787	-27.6283	104.127	105.241	-41.3071	176.192	95.1498	-58.2527	169.082	93.2407	-81.697	159.764	80.5468	-108.337	152.62	72.8045	-55.2338	117.526	82.912	-54.4613	111.044	92.6691	-16.4261	136.701	59.7187	-39.3195	108.411	68.2958	-28.5625	103.747	84.9078	-0.555185	133.868	40.2454	-18.0568	113.983	59.0877	-13.2563	116.716	82.7525	8.52073	185.949	53.6123	5.80139	193.21	57.7631	37.5852	198.892	91.491	11.3567	
90	0.75	165.456	121.013	21.4543	133.653	122.016	-4.00975	118.182	116.019	-29.1076	100.372	105.87	-44.3272	169.893	97.8797	-60.9169	156.11	90.2825	-80.1372	141.031	85.7557	-102.017	151.748	72.6837	-54.2482	116.278	82.6555	-53.1541	107.837	89.8573	-16.8775	136.861	55.4497	-37.2831	105.48	70.7101	-25.4649	104.166	82.8948	4.51404	134.765	40.9525	-17.4725	110.74	57.4069	-8.50441	117.9	80.3102	9.70163	185.181	55.8292	1.77773	194.377	62.4773	40.7381	198.503	92.3349	11.5863	
91	0.758333	165.577	117.236	21.0626	133.26	121.593	-4.54589	117.724	114.698	-22.5612	99.6075	107.087	-42.3237	162.4	94.4655	-59.4775	143.722	93.2552	-81.3374	124.287	87.0243	-97.1873	147.357	73.5825	-54.783	111.052	82.3511	-49.1991	108.085	89.4524	-12.5097	133.839	57.0639	-38.3753	102.516	68.0129	-23.614	103.986	82.3522	2.74029	132.108	37.8577	-16.2753	110.385	58.9407	-7.02713	117.757	79.4779	11.8961	184.633	53.7796	0.890445	194.062	58.6967	38.5318	196.274	91.5089	13.8746	
92	0.766667	164.607	117.983	18.5766	133.902	117.085	-1.95329	116.219	115.714	-24.0121	101.5	102.971	-40.7876	158.454	96.468	-59.2631	138.254	93.142	-79.6038	116.588	85.5305	-92.5818	146.091	73.1019	-55.142	111.173	82.9567	-49.4182	106.799	84.8055	-12.6387	133.038	57.352	-37.5234	103.812	65.8428	-26.7944	104.215	80.2698	8.55412	127.943	39.246	-17.7206	110.191	56.583	-10.2819	118.362	80.4179	13.3814	183.807	52.3101	2.39121	193.493	56.5868	39.6452	193.862	89.713	13.2656	
93	0.775	165.192	117.047	19.4644	132.274	120.19	-1.30238	116.869	113.927	-27.8163	97.8023	106.667	-43.1665	158.759	94.355	-58.4443	140.186	93.7046	-77.3149	115.487	83.7212	-92.2366	147.553	73.8409	-54.1238	108.817	78.886	-47.4764	108.526	88.2252	-10.6296	130.875	55.9391	-36.3097	103.794	66.7551	-25.5245	102.042	82.1723	2.24795	128.929	39.6509	-16.4527	107.321	56.3136	-7.72168	116.952	79.5	14.4928	181.917	49.1126	2.13985	192.072	60.397	40.6492	195.714	87.8462	9.98335	
